<?xml version="1.0" encoding="utf-8"?>
<!-- Uploaded to: SVG Repo, www.svgrepo.com, Generator: SVG Repo Mixer Tools -->
<svg fill="#000000" width="800px" height="800px" viewBox="0 0 32 32" version="1.1" xmlns="http://www.w3.org/2000/svg">
<title>barrier</title>
<path d="M30.54 15.995c0-8.062-6.536-14.598-14.598-14.598s-14.598 6.536-14.598 14.598c0 2.844 0.814 5.497 2.22 7.741-0.703-1.632-1.092-3.431-1.092-5.32 0-7.438 6.030-13.468 13.468-13.468s13.468 6.030 13.468 13.468c0 1.897-0.393 3.702-1.101 5.339 1.414-2.248 2.232-4.908 2.232-7.76zM15.941 7.026l-4.225 12.362-6.358-1.768v12.27l4.535-4.791 2.35 1.81 0.865 3.779h5.668l0.866-3.78 2.348-1.808 4.534 4.791v-12.27l-6.358 1.768-4.225-12.362zM18.032 19.982v0c0.003 0.071 0.006 0.142 0.008 0.214 0 0.011 0.001 0.022 0.001 0.033 0.002 0.060 0.003 0.12 0.005 0.18 0 0.017 0.001 0.033 0.001 0.050 0.001 0.059 0.002 0.118 0.003 0.178 0 0.014 0 0.028 0.001 0.042 0.001 0.074 0.001 0.149 0.001 0.224h-4.22c0-0.073 0-0.146 0.001-0.218 0-0.021 0.001-0.042 0.001-0.063 0.001-0.052 0.001-0.103 0.002-0.154 0-0.023 0.001-0.045 0.001-0.068 0.001-0.052 0.003-0.105 0.004-0.156 0.001-0.018 0.001-0.036 0.002-0.055 0.002-0.069 0.005-0.138 0.008-0.206 0.293-6.925 3.889-6.917 4.182-0.001z"></path>
</svg>